<svg xmlns="http://www.w3.org/2000/svg" viewBox="0 0 180 180" role="img" aria-labelledby="title desc">
  <title id="title">StepNix Signature Logo</title>
  <desc id="desc">Premium StepNix logo mark with monogram and stepping motif.</desc>
  <defs>
    <linearGradient id="brandGrad" x1="0" y1="0" x2="1" y2="1">
      <stop offset="0%" stop-color="#0a2e63"/>
      <stop offset="52%" stop-color="#1969b8"/>
      <stop offset="100%" stop-color="#42b8ff"/>
    </linearGradient>
    <linearGradient id="metalGrad" x1="0" y1="0" x2="1" y2="1">
      <stop offset="0%" stop-color="#f5fbff" stop-opacity="0.96"/>
      <stop offset="100%" stop-color="#c9def4" stop-opacity="0.55"/>
    </linearGradient>
    <filter id="brandShadow" x="-30%" y="-40%" width="160%" height="200%">
      <feDropShadow dx="0" dy="8" stdDeviation="8" flood-color="#0b376f" flood-opacity="0.24"/>
    </filter>
  </defs>

  <g filter="url(#brandShadow)">
    <rect x="16" y="18" width="148" height="148" rx="42" fill="url(#metalGrad)"/>
    <rect x="16" y="18" width="148" height="148" rx="42" fill="none" stroke="rgba(255,255,255,0.75)" stroke-width="2"/>

    <path d="M52 118c14 12 30 18 47 18 18 0 29-7 29-18 0-10-8-14-29-18-28-5-43-15-43-35 0-23 20-38 50-38 20 0 37 6 53 17l-11 16c-14-9-27-13-41-13-15 0-25 6-25 15 0 9 8 13 28 17 30 5 45 16 45 36 0 25-21 40-56 40-23 0-43-7-60-22z" fill="url(#brandGrad)"/>

    <path d="M94 76h34l17 20 18-20h34l-34 39 37 41h-35l-20-22-20 22h-34l36-41z" transform="translate(-5 -20)" fill="url(#brandGrad)"/>

    <path d="M120 58l16 16-16 16" fill="none" stroke="#6fd0ff" stroke-width="6" stroke-linecap="round" stroke-linejoin="round" opacity="0.9"/>
  </g>

</svg>
